<?xml version="1.0" standalone="no"?>
<!DOCTYPE svg PUBLIC "-//W3C//DTD SVG 20010904//EN"
 "http://www.w3.org/TR/2001/REC-SVG-20010904/DTD/svg10.dtd">
<svg version="1.0" xmlns="http://www.w3.org/2000/svg"
 width="1024.000000pt" height="1024.000000pt" viewBox="0 0 1024.000000 1024.000000"
 preserveAspectRatio="xMidYMid meet">
<metadata>
Created by potrace 1.14, written by Peter Selinger 2001-2017
</metadata>
<g transform="translate(0.000000,1024.000000) scale(0.100000,-0.100000)"
fill="#000000" stroke="none">
<path d="M4840 8540 c-412 -30 -910 -175 -1325 -385 -572 -290 -1020 -692
-1370 -1230 -171 -261 -334 -616 -416 -901 -38 -133 -94 -411 -111 -549 -17
-147 -17 -694 0 -835 128 -1033 713 -1955 1597 -2517 458 -291 941 -465 1475
-530 294 -36 738 -19 1040 38 688 132 1319 465 1805 953 236 237 335 363 561
713 201 309 378 825 449 1307 37 255 39 659 4 916 -43 313 -161 710 -294 986
-245 513 -590 946 -1030 1294 -109 86 -365 254 -503 329 -570 313 -1233 457
-1882 411z"/>
</g>
</svg>
